<svg width="100" height="100" viewBox="0 0 100 100" fill="none" xmlns="http://www.w3.org/2000/svg">
<g clip-path="url(#clip0_4_31)">
<path d="M59.25 67.5C59.8942 67.5002 60.416 68.0228 60.416 68.667V99.5H39.583V68.667C39.583 68.0228 40.1058 67.5002 40.75 67.5H59.25ZM50 0.532227C56.8436 0.532227 62.5887 5.45676 74.0791 15.3057L80.2461 20.5918C86.6029 26.0405 89.7821 28.7646 91.4746 32.4443C93.1671 36.1242 93.167 40.3109 93.167 48.6836V74.833C93.167 86.4609 93.167 92.2754 89.5547 95.8877C86.1464 99.2959 80.7779 99.4852 70.416 99.4961V68.667C70.416 62.4999 65.417 57.5002 59.25 57.5H40.75C34.583 57.5002 29.583 62.4999 29.583 68.667V99.4961C19.2217 99.4852 13.8534 99.2958 10.4453 95.8877C6.83297 92.2754 6.83301 86.4609 6.83301 74.833V48.6836C6.83301 40.3109 6.8329 36.1242 8.52539 32.4443C10.2179 28.7646 13.3971 26.0405 19.7539 20.5918L25.9209 15.3057C37.4113 5.45676 43.1564 0.532228 50 0.532227Z" fill="white"/>
</g>
<defs>
<clipPath id="clip0_4_31">
<rect width="100" height="100" fill="white"/>
</clipPath>
</defs>
</svg>
