<svg width="100" height="100" viewBox="0 0 100 100" fill="none" xmlns="http://www.w3.org/2000/svg">
<path d="M44.1523 2.21561C47.6444 -0.301628 52.3556 -0.30163 55.8477 2.21561L88.8477 26.0066C91.4548 27.8862 93 30.9049 93 34.1189V92.9998C93 95.7612 90.7614 97.9998 88 97.9998H83V49.9998C82.9999 44.477 78.5228 39.9998 73 39.9998H27C21.4772 39.9998 17.0001 44.477 17 49.9998V97.9998H12C9.23858 97.9998 7 95.7612 7 92.9998V34.1189C7 30.9049 8.54519 27.8862 11.1523 26.0066L44.1523 2.21561ZM73 86.9998V97.9998H27V86.9998H73ZM73 67.9998V76.9998H27V67.9998H73ZM73 49.9998V57.9998H27V49.9998H73Z" fill="white"/>
</svg>
