<svg width="100" height="100" viewBox="0 0 100 100" fill="none" xmlns="http://www.w3.org/2000/svg">
<g clip-path="url(#clip0_4_34)">
<path d="M50 -0.25C77.7523 -0.25 100.25 22.2477 100.25 50C100.25 77.7523 77.7523 100.25 50 100.25C22.2477 100.25 -0.25 77.7523 -0.25 50C-0.25 22.2477 22.2477 -0.25 50 -0.25ZM41.625 45C38.8637 45 36.6252 47.2387 36.625 50C36.6252 52.7613 38.8637 55 41.625 55H45V72.334C45.0004 75.0951 47.2388 77.334 50 77.334H61.167C63.928 77.3338 66.1666 75.095 66.167 72.334C66.167 69.5727 63.9283 67.3342 61.167 67.334H55V50C54.9998 47.2387 52.7613 45 50 45H41.625ZM50 22.667C47.2386 22.667 45 24.9056 45 27.667C45.0002 30.4282 47.2387 32.667 50 32.667H50.0557C52.817 32.667 55.0555 30.4283 55.0557 27.667C55.0557 24.9056 52.8171 22.667 50.0557 22.667H50Z" fill="white"/>
</g>
<defs>
<clipPath id="clip0_4_34">
<rect width="100" height="100" fill="white"/>
</clipPath>
</defs>
</svg>
