<svg width="100" height="100" viewBox="0 0 100 100" fill="none" xmlns="http://www.w3.org/2000/svg">
<g clip-path="url(#clip0_4_32)">
<path d="M50 33C50 33.3301 49.9892 34.0808 50.0811 34.7637C50.1922 35.5904 50.5276 37.012 51.7578 38.2422C52.988 39.4724 54.4096 39.8078 55.2363 39.9189C55.9192 40.0108 56.6699 40 57 40H90V70C90 84.1421 89.9998 91.213 85.6064 95.6064C81.213 99.9998 74.1421 100 60 100H40C25.8579 100 18.787 99.9998 14.3936 95.6064C10.0002 91.213 10 84.1421 10 70V30C10 15.8579 10.0002 8.78695 14.3936 4.39355C18.787 0.000156656 25.8579 0 40 0H50V33ZM35 70C32.2386 70 30 72.2386 30 75C30 77.7614 32.2386 80 35 80H55C57.7614 80 60 77.7614 60 75C60 72.2386 57.7614 70 55 70H35ZM35 50C32.2386 50 30 52.2386 30 55C30 57.7614 32.2386 60 35 60H65C67.7614 60 70 57.7614 70 55C70 52.2386 67.7614 50 65 50H35ZM60 0.0253906C62.058 0.0763514 63.4202 0.237077 64.6846 0.760742C66.5222 1.52191 67.9674 2.96741 70.8574 5.85742L84.1426 19.1426C87.0326 22.0326 88.4781 23.4778 89.2393 25.3154C89.7629 26.5798 89.9227 27.942 89.9736 30H60V0.0253906Z" fill="white"/>
</g>
<defs>
<clipPath id="clip0_4_32">
<rect width="100" height="100" fill="white"/>
</clipPath>
</defs>
</svg>
