<svg width="100" height="100" viewBox="0 0 100 100" fill="none" xmlns="http://www.w3.org/2000/svg">
<g clip-path="url(#clip0_2_2)">
<path d="M50 0C77.6142 0 100 22.3858 100 50C100 77.6142 77.6142 100 50 100C22.3858 100 0 77.6142 0 50C0 22.3858 22.3858 0 50 0ZM50 18.5C46.4101 18.5 43.5 21.4101 43.5 25V43.5H25C21.4101 43.5 18.5 46.4101 18.5 50C18.5 53.5899 21.4101 56.5 25 56.5H43.5V75C43.5 78.5899 46.4101 81.5 50 81.5C53.5899 81.5 56.5 78.5899 56.5 75V56.5H75C78.5899 56.5 81.5 53.5899 81.5 50C81.5 46.4101 78.5899 43.5 75 43.5H56.5V25C56.5 21.4101 53.5899 18.5 50 18.5Z" fill="white"/>
</g>
<defs>
<clipPath id="clip0_2_2">
<rect width="100" height="100" rx="21" fill="white"/>
</clipPath>
</defs>
</svg>
